<svg id="Objects" xmlns="http://www.w3.org/2000/svg" viewBox="0 0 199.3 87.9"><style>.st0{fill:#fff}.st1{fill:#1dc1ce}</style><path class="st0" d="M15.2 31c-1.5.7-3 1.4-4.4 2.1C7 35 4.9 36.4 4.7 36.5c-4.4 2.8-6 8.5-3.6 13.1s7.9 6.6 12.7 4.6c0 0 1.7-.7 4.8-1.7 2.4-.8 7.5-2.3 14.3-3.5 3-.6 6.2-1.1 9.7-1.5 3-.3 6.9-.7 10.9-.9h.1c3.2-.2 6.8-.2 11.6 0 3.6.2 7.7.4 11.8.9l3 .4 3.1.5c1.6.2 3.3.6 5 .9l.7.1c3.6.7 7.3 1.7 11 2.7.1 0 .2 0 .3.1 1.1.3 2.2.7 3.4 1.1.5.2 1 .3 1.5.5l-2.6 1.8c-3.4 2.3-5 6.4-4.1 10.4.9 4 4.1 7 8.1 7.7l81.1 14c2 .4 4.1.1 5.9-.8 1.7-.8 3.2-2 4.2-3.7 2.2-3.4 2.1-7.7-.2-11.1L151 4.3c-2.3-3.4-6.4-5-10.4-4.1-.7.2-1.4.4-2 .7-3 1.4-5.1 4.1-5.7 7.4l-2.2 13c-.4-.1-.9-.2-1.3-.3-2.8-.7-5.9-1.4-9.2-2l-2.9-.6c-.8-.2-1.6-.3-2.4-.4-.3 0-2.1-.3-2.7-.4-1.6-.3-3.3-.5-5.2-.7-4.7-.6-9.4-.9-14-1.1h-.6c-2.2-.1-4.4-.1-6.8-.1h-3.7l-3.4.1c-5.2.2-10.4.8-14.3 1.2H64c-5.6.8-9.8 1.5-13.6 2.3-4.8 1-9.2 2.2-12.5 3.1-4 1.2-7.7 2.4-11.1 3.6-4.1 1.7-7.9 3.3-11.6 5z"/><path class="st1" d="M189.3 77.9l-81.1-14 18.1-12.3c-1.1-.5-2.2-1-3.3-1.6-2.9-1.2-6-2.6-9.4-3.8-.8-.3-1.7-.6-2.6-1l-2.7-.9c-1.8-.6-3.6-1.2-5.5-1.7C99 41.5 95 40.5 91 39.7c-2-.4-4.1-.8-6.2-1.1l-3.2-.6-3.2-.4c-4.2-.5-8.5-.8-12.7-1-4.2-.1-8.4-.2-12.5 0-4.1.1-8 .5-11.7.9-3.7.4-7.2 1-10.4 1.6-6.4 1.2-11.8 2.7-15.4 3.8C12 44.1 10 45 10 45s1.9-1.2 5.3-2.9c3.5-1.8 8.5-4.1 14.8-6.4 3.2-1.2 6.6-2.3 10.3-3.4 3.7-1.1 7.7-2.1 11.8-3 4.1-.9 8.5-1.6 12.9-2.2 4.4-.5 9-1 13.6-1.2l3.4-.1h3.4c2.3 0 4.6 0 6.8.1 4.5.2 9 .5 13.3 1 2.2.2 4.3.6 6.4.9 1 .2 2.1.3 3.1.5l3 .6c4 .7 7.6 1.7 11 2.5 1.7.5 3.3.9 4.9 1.4.8.2 1.5.4 2.3.6.7.2 1.4.5 2.1.7h.1l4.1-24 46.7 67.8z"/></svg>