<svg id="Слой_2" xmlns="http://www.w3.org/2000/svg" viewBox="0 0 705.4 260"><style>.st0{fill:#f1a83d}.st1{fill:#4a4f54}.st2{fill:#fff}</style><path class="st0" d="M569.3 6.1c-18.6 18.9-43.3 42-71.8 55.3 0 0 38.7 8.9 71.8-55.3zM523.6 0c-24.3 61.2-65.4 63.2-86.3 75.7l27-3.2s48.5-6.4 59.3-72.5zm3.9 98.4c43.3 3 63.6 4.2 105.8 18.3C604.9 80 527.5 98.4 527.5 98.4zm85.7-65.1c-86.1 58.1-156.6 53.2-156.6 53.2 23.5 5.9 92.3 26.9 156.6-53.2zm-141 80.6c32.8-1.3 59 4.2 77.8 7.5-36.8-30.9-77.8-7.5-77.8-7.5zm51.4 23.2c-17.1-21.1-47.9-11.9-47.9-11.9 26.7 10.1 53.1 15.6 47.9 11.9z" id="Фигура_2_xA0_Обтравочный_контур"/><path class="st1" d="M0 88.7l25 1.4V215h-7.3c-4.5 0-10.4.5-17.6 1.4v-2.1c5.8-2.3 9.8-6 12-11 2.1-5.1 3.2-13.3 3.2-24.6V122c0-12.1-1.6-20.1-4.7-23.9-3.4-3.9-6.9-6.4-10.6-7.2v-2.2zM88.4 215H33.5V90.2c5.4-.2 11.4-.5 18-.9 6.2-.3 9-.5 8.5-.5v2.1c-6.1 1.6-10.4 4.7-12.9 9.4-2.5 4.8-3.8 12-3.8 21.4v51.5c0 7.7.4 14.6 1.2 20.7.7 6.4 1.5 10.1 2.5 11 .9.9 3.2 1.4 6.9 1.4h24.9c8.8 0 16-1.4 21.8-4.1 5.8-2.8 10.8-8.2 15.2-16.3h2.4c-.6 3.8-2.3 9.8-5.3 18-2 5.2-3.2 9.4-3.8 12.6-6.5-1-13.4-1.5-20.7-1.5zm54.4-123.9l16.7 15.5-5.7 5.9-16.6-15.4 5.6-6zm-4.6 94.4v-55h8.9v59.1c0 8.7.9 14.9 2.6 18.6 1.7 3.9 4.4 6.6 8.3 8.3h-3.7c-5.3-2.4-9.3-5.7-12.1-9.9-2.6-4.2-4-11.2-4-21.1zm15.7-106.2l16.6 15.5-5.6 5.9-16.7-15.4 5.7-6zm1 108.2v-57h8.9v58.7c0 14.4 5 21.6 15 21.6 3.2 0 5.9-.6 7.9-1.9v2.6c-4 3.3-8.5 5-13.3 5-4.4 0-8.1-1.3-11.1-4-3.2-2.8-5.3-5.8-6-9.1-.9-3.3-1.4-8.6-1.4-15.9zm43.9-4h1.8c2.4 7.3 6.3 13.5 11.7 18.4 5.5 4.9 11.4 7.3 17.8 7.3 5 0 9.3-1.3 12.9-3.8 3.5-2.5 5.2-5.5 5.2-8.9 0-3.6-1.8-6.6-5.3-8.8-3.6-2.2-10.3-4.3-19.9-6.3-9.5-2.1-16.5-5.1-21.2-9.1-4.7-4-7-9-7-15 0-4.7 1.5-9 4.6-13.1-.3 2-.5 3.8-.5 5.4 0 3.9 1.2 7.7 3.6 11.1 2.2 3.3 5.3 5.8 9.4 7.6 3.9 1.7 10.6 3.8 19.9 6 8.8 2.1 15.3 4.7 19.3 7.8 3.9 3.1 5.9 7.5 5.9 13.4 0 6.2-2.5 11.2-7.5 15.2-4.9 3.9-12 5.8-21.4 5.8-8.3 0-17.8-2-28.7-6 0-6-.2-10.3-.5-12.8-.2-2.4-.4-4.9-.4-7.6 0-1.4.1-3.6.3-6.6zm67.6-25.7h-1.7c-2.8-7.3-7.2-12.8-13.3-16.5-6-3.6-12.1-5.4-18.2-5.4-4.8 0-9.1.9-12.8 2.8-3.6 2-5.4 4.8-5.4 8.4 0 2.8 1.3 4.9 4 6.4 2.5 1.4 7.5 2.9 14.9 4.5 15.3 3.2 25.2 7.4 29.7 12.4 4.5 5.1 6.8 10.4 6.8 16 0 4.8-2.2 10.2-6.6 16.2.6-2.9.9-5.4.9-7.5 0-6.1-2.1-11.6-6.2-16.7-4-5-13.5-9.2-28.3-12.7-8.8-2.1-14.8-4.3-18.2-6.9-3.5-2.6-5.2-6.4-5.2-11.5 0-5.7 2.6-10.3 7.7-13.7 5.1-3.4 12.5-5.1 22.4-5.1 9.4 0 19 1.9 28.9 5.8-.2 1.9-.2 3-.2 3.2 0 2.9.2 6 .5 9.2.2 3 .3 6.7.3 11.1zm20.8 25.7h1.8c2.4 7.3 6.3 13.5 11.7 18.4 5.5 4.9 11.4 7.3 17.8 7.3 5 0 9.3-1.3 12.9-3.8 3.5-2.5 5.2-5.5 5.2-8.9 0-3.6-1.8-6.6-5.3-8.8-3.6-2.2-10.3-4.3-19.9-6.3-9.5-2.1-16.5-5.1-21.2-9.1-4.7-4-7-9-7-15 0-4.7 1.5-9 4.6-13.1-.3 2-.5 3.8-.5 5.4 0 3.9 1.2 7.7 3.6 11.1 2.2 3.3 5.3 5.8 9.4 7.6 3.9 1.7 10.6 3.8 19.9 6 8.8 2.1 15.3 4.7 19.3 7.8 3.9 3.1 5.9 7.5 5.9 13.4 0 6.2-2.5 11.2-7.5 15.2-4.9 3.9-12 5.8-21.4 5.8-8.3 0-17.8-2-28.7-6 0-6-.2-10.3-.5-12.8-.2-2.4-.4-4.9-.4-7.6.1-1.4.2-3.6.3-6.6zm67.7-25.7h-1.7c-2.8-7.3-7.2-12.8-13.3-16.5-6-3.6-12.1-5.4-18.2-5.4-4.8 0-9.1.9-12.8 2.8-3.6 2-5.4 4.8-5.4 8.4 0 2.8 1.3 4.9 4 6.4 2.5 1.4 7.5 2.9 14.9 4.5 15.3 3.2 25.2 7.4 29.7 12.4 4.5 5.1 6.8 10.4 6.8 16 0 4.8-2.2 10.2-6.6 16.2.6-2.9.9-5.4.9-7.5 0-6.1-2.1-11.6-6.2-16.7-4-5-13.5-9.2-28.3-12.7-8.8-2.1-14.8-4.3-18.2-6.9-3.5-2.6-5.2-6.4-5.2-11.5 0-5.7 2.6-10.3 7.7-13.7 5.1-3.4 12.5-5.1 22.4-5.1 9.4 0 19 1.9 28.9 5.8-.2 1.9-.2 3-.2 3.2 0 2.9.2 6 .5 9.2.2 3 .3 6.7.3 11.1zm114.5 28.5l-10.5-22h-44.7l-11.3 22-.6 1.5c-.1.1-.7 1.2-1.8 3.4-1.7 3.3-2.5 6.7-2.5 10.2 0 6 3.3 10.3 9.9 12.8v2.1c-1.3 0-3.7-.2-7-.6-4.7-.6-8.8-.8-12.6-.8-3.4 0-7.6.3-12.6.8-3.4.4-5.6.6-6.8.6v-2.1c8.7-4.4 16.6-13.5 23.7-27.4l39.3-76.5c-3-6.1-7.1-10.8-12.4-14.1-5.3-3.3-11.4-5.1-18.4-5.4v-2.1h4.1c3.7 0 8.8.2 15.3.7 6.8.5 11.2.7 13.3.7L493.9 215c-7.7.2-16.9.6-27.6 1.4v-2.1c6-1 9-4.3 9-9.7 0-4.1-1.9-10.1-5.9-18.3zm-50.6-30.9h35.8l-17.2-36-18.6 36zm84.6 59.6L443.6 90.2h11.6c1.6 4.1 3.8 9.3 6.6 15.5 3.2 6.7 4.9 10.7 5.3 12 .4.7.7 1.5 1.1 2.5l27.8 57.7c9.7 20.1 20.1 32.2 31 36.5v2.1c-10.6-1-18.5-1.5-23.6-1.5zm54.8-84.4V215c-11.6.2-19.5.6-23.6 1.4v-2.1c6.4-2.3 10.5-5.1 12.3-8.4 1.9-3.5 2.8-9.7 2.8-18.6v-30.6c0-8.4-1.1-14.5-3.3-18.1-2.3-3.7-6.2-6.2-11.8-7.3v-2c2.5.4 10.4.9 23.6 1.3zm8.6 84.4v-84.4c2.6-.1 5.8-.5 9.5-1.3-.5 3.1-.8 8.4-.9 15.9 8.3-10.6 14.2-15.9 17.8-15.9 2.1 0 5.8 1.1 11.4 3.4 4.8 2.1 8.1 3.1 9.8 3.1 2.3 0 4.9-1.6 7.7-4.9l.5-.5c.1-.1.4-.5 1.1-1.1l2.7 1.3c-3.8 8.5-8.7 12.8-14.7 12.8-2.1 0-6-1.3-12-3.9-2.4-1.1-4.3-1.7-5.6-1.7-3.8 0-7.8 2.4-12.1 7.3 2.1-.6 3.8-.9 5.2-.9 2.2 0 6.3 1.3 12.2 4 4.3 1.8 7.3 2.7 9.2 2.7 1.3 0 2.6-.4 3.9-1.2-3.9 5-7.6 7.5-11.3 7.5-1.7 0-4.4-.9-8.2-2.7-5.4-2.7-9.2-4-11.4-4-2.1 0-4.3 1.1-6.4 3.4v36c0 8.1 1.3 13.9 3.9 17.6 2.6 3.7 6.8 6 12.6 6.8v2.1c-9.2-.9-17.5-1.4-24.9-1.4zm71.9-30.6v-44.1h-7.6v-.9l16.3-15.5v67.5c0 7.7.8 13.1 2.3 16.1 1.5 3.1 3.6 5.4 6.2 6.9-6.5-.5-11-2.8-13.5-7.1-2.5-4.2-3.7-11.8-3.7-22.9zm25.4-78.6v26.4h20.3c3.7 0 6.5-.4 8.4-1.2 2.1-.9 4.4-2.6 7.1-5.3h3c-4.8 6.7-8.3 10.9-10.3 12.4s-5 2.3-9 2.3h-19.4v45.2c0 6.7.4 11.3 1.1 13.9.6 2.4 2.2 4.6 4.6 6.4 2.4 1.7 5.9 2.6 10.3 2.6 8.8 0 16.3-4.1 22.7-12.3l2.5 1.4c-6.5 12.6-15.9 18.8-28.2 18.8-5.3 0-9.7-1.2-13.3-3.6-3.6-2.4-6-5.4-7.2-9-1.2-3.7-1.8-9-1.8-16v-71.3c3.3-3.4 6.4-7 9.2-10.7z"/><path class="st2" d="M18 255.5l-5.3-6.7-2.7 2.5v4.1H9V243h1v7.1l7.5-7.1h1.3l-5.5 5.1 5.8 7.3H18zm15.8-11.6H28l-.2 6.6c-.1 3.6-1.2 5.2-2.9 5.2-.4 0-1.1-.1-1.4-.2v-.9c.4.2.8.3 1.4.3 1.3 0 1.9-1.8 2-4.4l.3-7.4h7.7v12.4h-1v-11.6zm16.6.4l-7.7 11.2h-1.2V243h1v11.2l7.7-11.2h1.2v12.4h-1v-11.1zm8.8 11.2h-1V243h1.6l4.8 11.3 4.7-11.3h1.6v12.4h-1v-11.5l-4.8 11.5h-1l-4.8-11.5v11.6zm29.2-.1c-.3.1-.6.1-1 .1-1.1 0-1.4-.5-1.4-2.1v-.6c-1 2-2.5 3-4.9 3-2.6 0-4.1-1.3-4.1-3.5 0-2.8 2.4-3.6 4.8-3.8 3.3-.3 3.6-.3 4-.8.1-.2.2-.7.2-1.3 0-1.9-1.2-2.9-3.5-2.9s-3.6 1.1-3.8 3.3h-.9c.2-2.7 1.9-4.1 4.8-4.1 1.6 0 2.9.5 3.7 1.3.7.8.7 1.8.7 2.9v6.4c0 .7 0 1.3.9 1.3.2 0 .3 0 .6-.1v.9zm-3.3-6.5c-1.8.6-3.8.3-5.6 1.1-.9.4-1.5 1.2-1.5 2.3 0 1.7 1.2 2.7 3.2 2.7 2.7 0 4.6-1.8 4.6-4.3v-2.2c-.2.2-.3.3-.7.4zm13.3 6.6h-1v-11.6h-4.7v-.9h10.4v.8h-4.7v11.7zm19.3-11.2l-7.7 11.2h-1.2V243h1v11.2l7.7-11.2h1.2v12.4h-1v-11.1zm16 5.1c-.5.2-2.7.9-4.2.9-2.7 0-4-1.1-4-4.1V243h1v3.4c0 2.4 1.2 3 3 3 1.5 0 3.6-.7 4.2-1V243h1v12.4h-1v-6zm12.9 6.5c-3.4 0-5.7-2.5-5.7-6.5s2.3-6.7 5.7-6.7c3.7 0 5.4 3 5.4 6.4v.3h-10c0 2.9 1.4 5.6 4.7 5.6 2.3 0 3.8-1.4 4.3-3.8h1c-.5 2.8-2.4 4.7-5.4 4.7zm0-12.3c-3.1 0-4.4 2.4-4.6 5h9.1c-.1-2.5-1.5-5-4.5-5zm16.8 12.2c-3.8 0-5.7-3-5.7-6.5 0-4 2.3-6.6 5.8-6.6 2.9 0 4.8 1.6 5.1 4.2h-1c-.3-2-1.8-3.3-4.1-3.3-3 0-4.9 2.3-4.9 5.8s1.9 5.8 4.7 5.8c2.4 0 4-1.5 4.3-3.9h1c-.3 2.8-2.2 4.5-5.2 4.5zm20.5-.3l-5.3-6.7-2.7 2.5v4.1h-1V243h1v7.1l7.5-7.1h1.3l-5.5 5.1 5.8 7.3h-1.1zm15.3-11.2l-7.7 11.2h-1.2V243h1v11.2L199 243h1.2v12.4h-1v-11.1zm12.9 11.6c-3.4 0-5.7-2.5-5.7-6.5s2.3-6.7 5.7-6.7c3.7 0 5.4 3 5.4 6.4v.3h-10.1c0 2.9 1.4 5.6 4.7 5.6 2.3 0 3.8-1.4 4.3-3.8h1c-.4 2.8-2.3 4.7-5.3 4.7zm0-12.3c-3.1 0-4.4 2.4-4.6 5h9.1c-.1-2.5-1.5-5-4.5-5zm27.7 12.2c-3.8 0-5.7-3-5.7-6.5 0-4 2.3-6.6 5.8-6.6 2.9 0 4.8 1.6 5.1 4.2h-1c-.3-2-1.8-3.3-4.1-3.3-3 0-4.9 2.3-4.9 5.8s1.9 5.8 4.7 5.8c2.4 0 4-1.5 4.3-3.9h1c-.3 2.8-2.2 4.5-5.2 4.5zm20.4-11.5l-7.7 11.2h-1.2V243h1v11.2L260 243h1.2v12.4h-1v-11.1zm13 11.5c-3.8 0-5.7-3-5.7-6.5 0-4 2.3-6.6 5.8-6.6 2.9 0 4.8 1.6 5.1 4.2h-1c-.3-2-1.8-3.3-4.1-3.3-3 0-4.9 2.3-4.9 5.8s1.9 5.8 4.7 5.8c2.4 0 4-1.5 4.3-3.9h1c-.3 2.8-2.2 4.5-5.2 4.5zm15.6-.3h-1v-11.6h-4.7v-.9h10.4v.8h-4.7v11.7zm15 .4c-3.4 0-5.7-2.5-5.7-6.5s2.3-6.7 5.7-6.7c3.7 0 5.4 3 5.4 6.4v.3h-10.1c0 2.9 1.4 5.6 4.7 5.6 2.3 0 3.8-1.4 4.3-3.8h1c-.4 2.8-2.3 4.7-5.3 4.7zm0-12.3c-3.1 0-4.4 2.4-4.6 5h9.1c0-2.5-1.4-5-4.5-5zm12.6 11.9h-1V243h1.6l4.8 11.3 4.7-11.3h1.6v12.4h-1v-11.5l-4.8 11.5h-1l-4.8-11.5v11.6zm18.4 0V243h1v4.9h3.7c3.7 0 4.7 1.8 4.7 3.6 0 2.5-1.8 3.9-4.3 3.9h-5.1zm1-6.7v5.8h4c2.1 0 3.4-1.2 3.4-3 0-2.1-2-2.7-3.9-2.7h-3.5zm10.7-5.8h1v12.4h-1V243zm27.5 1.3l-7.7 11.2h-1.2V243h1v11.2l7.7-11.2h1.2v12.4h-1v-11.1zm23.2 11.2h-1v-11.6h-4.7v-.9h10.4v.8h-4.7v11.7zm15.1.4c-3.4 0-5.7-2.5-5.7-6.5s2.3-6.7 5.7-6.7c3.7 0 5.4 3 5.4 6.4v.3h-10.1c0 2.9 1.4 5.6 4.7 5.6 2.3 0 3.8-1.4 4.3-3.8h1c-.4 2.8-2.4 4.7-5.3 4.7zm0-12.3c-3.1 0-4.4 2.4-4.6 5h9.1c-.1-2.5-1.5-5-4.5-5zm16.2 5.3l5 6.6h-1.3l-4.3-5.8-4.4 5.8h-1.2l4.9-6.5-4.5-5.9h1.3l3.9 5.2 4-5.2h1.2l-4.6 5.8zm19.2.4h-7.9v6.2h-1V243h1v5.4h7.9V243h1v12.4h-1v-6.1zm18.7 0c0 4-2.3 6.5-5.8 6.5s-5.8-2.6-5.8-6.6c0-4 2.3-6.6 5.8-6.6 3.6.1 5.8 2.7 5.8 6.7zm-10.5 0c0 3.5 1.9 5.7 4.8 5.7s4.7-2.2 4.7-5.7-1.9-5.8-4.7-5.8-4.8 2.3-4.8 5.8zm25.3-5.4h-5.8l-.2 6.6c-.1 3.6-1.2 5.2-2.9 5.2-.4 0-1.1-.1-1.4-.2v-.9c.4.2.8.3 1.4.3 1.3 0 1.9-1.8 2-4.4l.3-7.4h7.7v12.4h-1v-11.6zm18.7 5.4c0 4-2.3 6.5-5.8 6.5s-5.8-2.6-5.8-6.6c0-4 2.3-6.6 5.8-6.6 3.6.1 5.8 2.7 5.8 6.7zm-10.5 0c0 3.5 1.9 5.7 4.8 5.7s4.7-2.2 4.7-5.7-1.9-5.8-4.7-5.8c-2.9 0-4.8 2.3-4.8 5.8zm17.8 6.2h-1V243h8.2v.8h-7.3v11.7zm21.7-11.2l-7.7 11.2H520V243h1v11.2l7.7-11.2h1.2v12.4h-1v-11.1zm16.7 0l-7.7 11.2h-1.2V243h1v11.2l7.7-11.2h1.2v12.4h-1v-11.1zm27.7 11.2l-5.3-6.7-2.7 2.5v4.1h-1V243h1v7.1l7.5-7.1h1.3l-5.5 5.1 5.8 7.3h-1.1zm17.3-6.2c0 4-2.3 6.5-5.8 6.5s-5.8-2.6-5.8-6.6c0-4 2.3-6.6 5.8-6.6 3.5.1 5.8 2.7 5.8 6.7zm-10.6 0c0 3.5 1.9 5.7 4.8 5.7s4.7-2.2 4.7-5.7-1.9-5.8-4.7-5.8c-2.8 0-4.8 2.3-4.8 5.8zm17.8 6.2h-1V243h1.6l4.8 11.3 4.7-11.3h1.6v12.4h-1v-11.5l-4.8 11.5h-1l-4.8-11.5v11.6zm30 .3c-1.4 0-2.5-.8-3.2-1.8v6h-1v-6c-.6 1-1.7 1.8-3.2 1.8-3.2 0-4.8-3-4.8-6.5s1.5-6.5 4.7-6.5c1.4 0 2.6.9 3.2 1.9v-6.4h1v6.4c.6-1 1.8-1.9 3.2-1.9 3.2 0 4.7 3 4.7 6.5.2 3.5-1.5 6.5-4.6 6.5zm-4.1-9c0-1.7-1.6-3.2-3-3.2-2.9 0-3.9 2.7-3.9 5.7s1.3 5.7 3.9 5.7c1.4 0 3-1.4 3-3.1v-5.1zm3.9-3.3c-1.4 0-3 1.5-3 3.2v5c0 1.7 1.6 3.1 3 3.1 2.6 0 3.9-2.7 3.9-5.7s-1-5.6-3.9-5.6zm22.2 5.8c0 4-2.3 6.5-5.8 6.5s-5.8-2.6-5.8-6.6c0-4 2.3-6.6 5.8-6.6 3.6.1 5.8 2.7 5.8 6.7zm-10.5 0c0 3.5 1.9 5.7 4.8 5.7s4.7-2.2 4.7-5.7-1.9-5.8-4.7-5.8c-2.9 0-4.8 2.3-4.8 5.8zm17.8-3.3c.8-2.2 2.4-3.3 4.6-3.3 3.4 0 5.6 2.6 5.6 6.6 0 4-2.2 6.6-5.5 6.6-2.3 0-4-1.2-4.6-3.3v7.3h-1V243h.9v3zm0 3.4c0 2.9 1.3 5.7 4.6 5.7 2.8 0 4.6-2.3 4.6-5.7 0-3.6-1.8-5.8-4.6-5.8-2.9-.1-4.6 2.1-4.6 5.8zm20.7 6.1h-1v-11.6h-4.7v-.9h10.4v.8h-4.7v11.7zm20.7-.1c-.3.1-.6.1-1 .1-1.1 0-1.4-.5-1.4-2.1v-.6c-1 2-2.5 3-4.9 3-2.6 0-4.1-1.3-4.1-3.5 0-2.8 2.4-3.6 4.8-3.8 3.3-.3 3.6-.3 4-.8.1-.2.2-.7.2-1.3 0-1.9-1.2-2.9-3.5-2.9s-3.6 1.1-3.8 3.3h-.9c.2-2.7 1.9-4.1 4.8-4.1 1.6 0 2.9.5 3.7 1.3.7.8.7 1.8.7 2.9v6.4c0 .7 0 1.3.9 1.3.2 0 .3 0 .6-.1v.9zm-3.4-6.5c-1.8.6-3.8.3-5.6 1.1-.9.4-1.5 1.2-1.5 2.3 0 1.7 1.2 2.7 3.2 2.7 2.7 0 4.6-1.8 4.6-4.3v-2.2c-.1.2-.2.3-.7.4z"/></svg>