<svg id="Слой_1" xmlns="http://www.w3.org/2000/svg" viewBox="0 0 343.5 304.8"><style>.st0{fill:#54bad3}</style><path class="st0" d="M310.6 32.9H122.1v110.4l-.9.3c-.7-1.3-1.6-2.5-2.2-3.9-9.2-19.9-18.5-39.8-27.6-59.8-1-2.2-1.6-4.8-1.6-7.1-.1-18.5-.1-37-.1-55.5 0-9.5 5.4-15.7 14.8-16.9 1.8-.2 3.6-.3 5.5-.3h212.9c3.4 0 7.2.2 10.3 1.4 7.5 3 10.4 9.2 10.3 17.2-.1 35.7 0 71.3 0 107 0 28.8.1 57.7 0 86.5 0 10.1-1.7 19.9-6.6 28.9-9.2 16.8-23.5 26.4-42.2 29.5-41 6.8-82.1 13.4-123.6 20.1-2.6-17.6 2.9-36-6.3-52.9 18.2-9 36-17.9 53.9-26.8 6.7-3.3 13.4-6.7 20.1-10 12.6-6 23.6.3 24.9 14.2 1.3 13.9 11.1 23.2 24.2 22.8 13.1-.4 22.8-10.3 22.8-24 .1-59.3 0-118.6 0-178 .1-.9-.1-1.9-.1-3.1zM79.4 106c6.4 13.8 12.7 27.2 18.9 40.6 16 34.6 32 69.1 47.9 103.8 1.1 2.3 1.8 5.1 1.8 7.7.3 13.5.5 27 .5 40.5 0 2.1-1.2 5.1-2.9 6.1-1.2.7-4.4-.6-6-1.9-10.6-8.9-21-17.9-31.4-27-1.3-1.2-2.5-2.7-3.3-4.3-22.2-47.7-44.2-95.4-66.3-143-.3-.7-.6-1.5-1-2.6 13.8-6.7 27.5-13.1 41.8-19.9z"/><path class="st0" d="M23.5 96.8c-2.4-5.3-4.8-10-6.9-14.9-4.2-9.6-.9-18.3 8.6-22.8 4-1.9 8.1-3.8 12.3-5.4 8.2-3.1 16.4-.3 20.4 7.5 5 9.9 9.6 20.1 14.5 30.6-2.1 1.1-3.9 2.1-5.8 3-13.4 6.2-26.8 12.5-40.3 18.7-9.9 4.6-12.7 12.1-8.1 22.1 12.8 28 25.7 55.9 38.6 83.8.5 1.1 1 2.1 1.5 3.2 2.4 5.7 1.3 9.5-3.6 11.6-4.6 2-8.6.3-11.2-5.1-3.1-6.6-6.1-13.3-9.2-19.9-10.2-22-20.3-44.1-30.5-66.1-4.5-9.8-5.6-19.7-.5-29.7 3.4-6.5 8.7-10.8 15-14 1.7-1 3.2-1.7 5.2-2.6zm193.1-28h-58.4c-1.8 0-3.7 0-5.4-.5-3.9-1.1-6.3-3.9-6.1-8.1.2-4.1 2.5-6.8 6.7-7.5 2-.3 4-.4 6-.4h116.8c6.5.3 10.3 3.5 10.1 8.6-.2 4.9-4 7.9-10.2 7.9-19.9.1-39.7 0-59.5 0zm-.3 48.5h57.9c1.8 0 3.7 0 5.5.3 4 .6 6.2 3.4 6.5 7.2.3 3.8-1.5 6.8-5.3 8.1-1.8.6-3.9.8-5.9.8H158.2c-2 0-4-.1-5.9-.7-3.7-1.2-5.8-3.9-5.6-7.9.2-4.1 2.6-6.8 6.7-7.5 1.6-.3 3.3-.2 5-.2 19.3-.1 38.6-.1 57.9-.1zm.4 32.4h57.4c1.7 0 3.3 0 5 .2 4.4.6 6.8 3.4 7.2 7.7.3 4-2.9 7.6-7.1 8.3-1.6.2-3.3.2-5 .2H158.8c-8.1 0-12-2.5-12.1-7.9-.2-5.6 3.8-8.4 12.1-8.4 19.2-.1 38.5-.1 57.9-.1zm-.1-48.7h-59.9c-3.7 0-7-.5-9-4.1-2.8-4.8 0-10.8 5.7-11.9 1.6-.3 3.3-.2 5-.2h118.8c5.6.2 9.3 3.8 9.2 8.5-.2 4.6-3.7 7.6-9.3 7.7h-60.5zm-34.8 97.7c-8 0-16 .1-23.9 0-2 0-4.6.2-5.8-.9-2.2-2-5.1-5-5-7.5 0-2.5 3-5.4 5.3-7.3 1.4-1.1 4.1-.9 6.3-.9 15.5-.1 30.9 0 46.4 0 1.5 0 3 0 4.5.3 4.8.9 7.7 4.1 7.4 8.5-.3 4.7-3.4 7-7.7 7.7-1.3.2-2.7.2-4 .2-7.9-.1-15.7-.1-23.5-.1z"/></svg>