<svg id="Слой_1" xmlns="http://www.w3.org/2000/svg" viewBox="0 0 320.2 334.8"><style>.st0{fill:#54bad3}</style><path class="st0" d="M288.2 266.6c0 15.6.2 30.5-.1 45.3-.2 11.6-10.8 22-22.6 22.7-1.3.1-2.7 0-4 0-78.6 0-157.3-.2-235.9.2-15.7.1-25.7-12.6-25.6-25.7.4-65 .4-130 0-194.9C-.1 99 11.4 90.3 23.8 90.5c12.2.3 24.3.1 36.5.1h4.8c-3.1 4.1-5.5 7.7-8.3 10.9-.8.9-2.7 1.1-4.1 1.1-9.5.1-19 0-28.5 0-1.2 0-2.3-.1-3.5 0-4.9.3-8.5 3.8-8.5 8.1.1 4.1 3.6 7.5 8.2 7.8 1.5.1 3 0 4.5 0h237.4c6.2 0 11.9 1.5 16.8 5.3 5.1 3.9 8.6 9.1 8.8 15.6.3 15.5.1 31 .1 47.1h-5.5c-22.7 0-45.3 0-68 .1-2.6 0-5.4.3-7.8 1.2-4.3 1.6-6.7 5-6.7 9.6-.1 19.2-.1 38.3 0 57.5.1 6.6 5.5 11.5 12.6 11.6 8.5.1 17 0 25.5 0h44.5c1.8.1 3.4.1 5.6.1z"/><path class="st0" d="M277.2 77.8c-2.9 4.2-5.6 8.2-8.8 12.8 8.4 0 16-.3 23.6.1 4.2.2 8.7 1.1 12.5 2.8 7.8 3.5 11.7 10.1 11.8 18.7 0 20.8-.1 41.7.1 62.5 0 2.7 1.3 5.3 2 8 .6 2.4 1.8 4.7 1.8 7.1.2 13 .1 26 0 39 0 2.1-.3 4.7-1.5 6.1-2.5 2.9-2.5 5.9-2.5 9.3 0 14.7.1 29.3 0 44-.1 8.4-3.3 15.1-11.7 19.6V248c-3.3 2.8-5.7 4.8-8 6.8-2.9 2.6-6.2 3.7-10 3.7-21.2-.1-42.3 0-63.5 0-9.4 0-14.8-5.6-14.8-15v-35c0-9.6 4.5-14.1 14-14.2h66c2.5 0 5-.2 7.4-.8 5.9-1.6 8.6-5.4 8.6-11.4 0-20.2-.3-40.3.1-60.5.2-10.7-7.5-18.3-17.8-19-8.3-.6-16.7 0-25-.2-2.9-.1-4.2 2-5.4 3.8-2.3 3.4-5.1 4.6-9.2 4.3-5.5-.4-11-.1-17.5-.1 7.5-10.2 14.6-19.7 21.8-29.5-29.9-22-59.7-43.9-89.9-66.2 3.6-4.9 7.1-9.6 11-14.9 35 26.2 69.8 52 104.9 78zm-18.7 148.4c.1-9.2-7.3-16.9-16.6-17-9.3-.1-16.8 7.1-17.1 16.4-.2 9.4 6.9 16.9 16.2 17.1 9.8.3 17.4-6.9 17.5-16.5z"/><path class="st0" d="M61.8 110.6c26.6-36 52.6-71.2 78.8-106.6 35.1 26 69.9 51.7 105 77.6-7 9.4-13.6 18.5-20.4 27.5-.6.8-1.9 1.4-2.9 1.4-6.4.1-12.9.1-20.3.1 6.2-8.7 11.9-16.7 17.9-25.2-25.2-18.6-50.2-37-75.4-55.7-6.2 8.4-12.3 16.5-18.3 24.6C113.1 72 100 89.6 87 107.3c-1.6 2.2-3.2 3.4-6.1 3.3-6-.2-12 0-19.1 0z"/><path class="st0" d="M169.7 110.4h-62c-2.8-9.5 4.8-20.8 14.2-24.7 6.5-2.7 13.3-2.9 20-1.1 11.4 3.1 20.2 9.8 25.7 20.4.9 1.6 1.4 3.3 2.1 5.4z"/></svg>