<svg id="Слой_1" xmlns="http://www.w3.org/2000/svg" viewBox="0 0 356 355.8"><style>.st0{fill:#54bad3}</style><path class="st0" d="M163.1 149.2c-4.9 4.5-9.6 8.9-14.7 13.7-6.1-6.1-12.7-12.9-19.5-19.5-11.2-10.9-24.2-13.5-37-7.5-11 5.2-17 14.3-17.8 26.3-3.9 52.8 32.9 97.4 85.5 103.6 5.6.7 11.3.4 17 .3 6.8-.1 12.7 1.9 17.5 6.9 5.4 5.6 11.1 11.1 16.6 16.7 3.3 3.4 3 5.5-1.7 6.5-4.4.9-5.4 3.5-5.9 7.3-.9 6.3-2 12.5-3.1 18.7-2 10.9-9.4 17.1-20.6 17.2-6.8.1-13.7.1-20.5 0-9.7-.2-16.8-5.7-19-15.2-1.6-7-2.8-14-3.8-21.1-.5-3.8-2.2-5.5-5.9-6.8-7.7-2.7-15.2-5.9-22.5-9.3-3-1.4-5.1-1.9-8 .4-5.5 4.3-11.3 8.2-17.1 12.1-8.4 5.7-17.7 5.1-25.2-1.8-5.4-5-10.5-10.2-15.5-15.6-7-7.6-7.7-16.5-2-25.1 4-6.1 8.2-12.1 12.6-18 1.7-2.2 1.5-3.9.4-6.3-3.7-8.2-7.2-16.4-10.3-24.8-1.1-2.9-2.6-3.9-5.2-4.3l-19.2-3.3C6.4 198.3.2 191 .1 179c0-6.3-.1-12.7 0-19 .1-10.8 5.9-18 16.1-20.1 7-1.5 14.1-2.7 21.1-3.8 2.7-.4 4.2-1.4 5.3-4.2 3.2-8.5 7-16.8 10.3-25.4.6-1.6.4-4.2-.5-5.7-3.9-6.2-8.4-12-12.4-18.1-5.7-8.6-5.1-17.5 1.9-25.1 5-5.4 10.2-10.6 15.5-15.6 7.7-7.1 16.8-7.7 25.5-1.7 5.9 4 11.8 8.1 17.5 12.4 2.2 1.6 3.8 1.5 6.3.4 8.2-3.7 16.5-7.1 24.8-10.2 2.8-1 3.9-2.4 4.4-5.2.9-6.4 2.1-12.8 3.2-19.2 2-11.9 9.2-18.2 21.2-18.4 6.2-.1 12.3-.1 18.5 0 12 .2 19.2 6.6 21.2 18.4 1.1 6.4 2.3 12.8 3.2 19.2.4 3 1.8 4.4 4.7 5.4 8.2 3 16.4 6.4 24.4 10.1 2.7 1.3 4.4 1 6.7-.6 5.6-4.2 11.4-8.2 17.2-12.1 9.1-6.2 18.5-5.3 26.3 2.4 4.9 4.8 9.7 9.6 14.5 14.5 7.1 7.3 8.1 16.5 2.5 25-4 6.1-8.2 12.2-12.6 18-1.8 2.3-1.8 4.1-.6 6.7 3.7 8.2 6.8 16.6 10.5 24.7.8 1.7 2.8 3.6 4.6 4 7.3 1.7 14.7 2.6 22.1 4.2 9.4 1.9 15.4 9.1 15.7 18.6.2 7.5.2 15 0 22.5-.3 8.9-5.8 15.9-14.6 17.9-7.1 1.7-14.4 2.9-21.6 4-3.6.6-5.8 1.8-6.8 5.7-1.3 5-3.2 5.4-6.8 1.9-5.7-5.6-11.3-11.3-17-16.9-5.1-5.1-6.7-11.2-6.3-18.2 1.3-22.4-4.3-43.1-17.7-61.1-22.4-30.1-52.5-43.7-89.9-39.5-11.7 1.3-19.8 8.6-23.7 19.6-4 11.4-2.2 22.2 5.8 31.3 6.4 7.2 13.5 13.8 20.3 20.7.6.9 1.4 1.8 2.2 2.7z"/><path class="st0" d="M243 170.1c-2.1 18 3.1 30.8 14.3 41.9 29.3 28.9 58.2 58.2 87.4 87.2 9.6 9.6 13.8 20.7 9.9 34-6.4 21.4-33.1 29.6-50.7 15.6-2.3-1.9-4.5-3.9-6.7-6-28.9-28.8-57.8-57.7-86.6-86.6-10-10.1-22-14.6-36.1-13.5-42.2 3.1-79.2-32.8-77.3-75.1.1-1.3.2-2.7.4-4 1.2-7.3 7.6-9.9 13.2-5.1 4.3 3.7 8.1 7.9 12.1 11.9 3.7 3.6 7.3 7.3 11 10.9 9 8.8 20.5 9.3 29.9.8 6.2-5.6 12.1-11.5 17.7-17.6 9-9.7 8.8-21.2-.5-30.7-6.8-7.1-13.9-13.9-20.8-20.9-2.8-2.8-5.3-5.6-3.7-10 1.6-4.4 5.2-5.2 9.2-5.4 34-2 66.9 20.5 75.1 56.7 1.4 5.9 1.7 12.1 2.2 15.9zM227.1 217c-2.9 2.5-6.2 4.4-7.9 7.2-2.5 4-.8 8.1 2.4 11.3 30.6 30.6 61.2 61.3 91.9 91.9 4.9 4.9 10.5 5.2 14.6 1.3 4.3-4 4-10-1-15-30.5-30.6-61-61.1-91.6-91.5-2-2.1-4.9-3.2-8.4-5.2z"/></svg>