<svg id="Слой_1" xmlns="http://www.w3.org/2000/svg" viewBox="0 0 279 252.7"><style>.st0{fill:#59b1c8}</style><path class="st0" d="M252.2 186.5c-1.7 26.7-14.1 46.4-37.7 58.3-21.9 11-44.4 10.4-65.5-1.9C90 208.8 43.3 162.2 9.3 103.2-13.9 63 8.4 12 53.1 1.8 57.1.9 61.3.6 65.8 0c4.9 13.2 9.8 26.1 14.6 39 2.3 6.2 4.5 12.5 7.1 18.7 1.1 2.6.7 4.2-1.3 6.1-6.5 6.2-12.8 12.6-19.2 19-4.8 4.8-5.2 8.3-1.5 13.7 24.2 35.9 54.3 66 90.2 90.3 5.7 3.9 9.1 3.5 14.1-1.5 6.4-6.3 12.7-12.8 19.2-19 1.1-1 3.4-2 4.6-1.5 19.5 7 38.9 14.3 58.6 21.7z"/><path class="st0" d="M151.3 103.4c-1.4-8.3 1.1-15.1 6.7-20.8 9.1-9.3 20.6-13.8 33-16.6 21.4-4.8 42.4-3.8 62.7 4.8 6.4 2.7 12.5 7 17.9 11.5 6.6 5.7 8.2 11.6 7.3 21-42.5.1-84.8.1-127.6.1zm64.6-99.1c14.8-.1 27.1 12 27.2 26.8.1 14.8-12 27.1-26.8 27.2-14.8.1-27.1-12-27.2-26.8-.1-14.9 12-27.1 26.8-27.2z"/></svg>