<svg id="Слой_1" xmlns="http://www.w3.org/2000/svg" viewBox="0 0 327.1 347.7"><style>.st0{fill:#54bad3}</style><path class="st0" d="M182 291.6c9.8-25.9 18-52.3 24.8-79.7 2.1.2 4.1.1 5.9.5 28.4 7.2 56.7 14.3 85.1 21.6 9.2 2.4 15.3 8.6 18.9 17.1 5.2 12.4 7.6 25.5 8.7 38.8.7 8.8 1.1 17.6 1.6 26.4.3 4.7-.3 5.4-4.9 7.4-17.1 7.2-35 11.6-53.2 15.1-28.2 5.5-56.7 7.6-85.4 8.6-24.5.8-48.9.1-73.4-1.8-30.9-2.4-61.5-7.2-91.1-16.7-5.2-1.7-10.2-3.9-15.4-5.8-2.5-.9-3.8-2.5-3.7-5.2.8-20.3 1.4-40.6 7.7-60.2 2.3-7.1 5.1-13.9 11.3-18.4 3-2.2 6.5-4.3 10-5.2 28.3-7.4 56.7-14.5 85.1-21.7 1.7-.4 3.6-.5 5.9-.7 6.8 27.3 15.2 53.9 24.9 80h1c.5-2.8 1-5.6 1.4-8.4 1.7-12.5 3.4-25.1 4.8-37.6.3-2.2-.2-4.6-.9-6.7-.8-2.5-2.3-4.8-3.3-7.3-2.6-6.1.5-11.2 7-11.4 5.8-.2 11.7-.2 17.5 0 5.4.2 8.5 4.6 7.2 9.9-.2.8-.5 1.6-.9 2.3-3.5 5.8-4.5 11.7-3.3 18.6 2.2 13.4 3.7 27 5.4 40.5.5-.2.9-.1 1.3 0zM218.3 136c-3.2 11.6-6.8 22.8-13.9 32.4-4 5.5-8.5 10.7-13.4 15.4-14.3 14.1-40.9 15.2-57.9-2.4-13.7-14.2-21.1-31.3-26.3-49.7-4.2-14.8-6.1-30.1-5.4-45.4 1-20.4 8.9-37.1 27.2-47.6 7.5-4.3 15.7-6.4 24.2-7.5 12.2-1.6 24.2-.6 36 3.4C207.6 40.9 219 54 223.7 73c4 16.2 1.6 32.4-.9 48.4-14.9 6.5-30.1 9.8-45.7 11.5-2.2.2-3.9-.3-5.4-1.9-3.1-3.5-7.2-4.6-11.7-4.5-4.5.1-9-.2-13.5.2-9 .9-14 8.9-11.1 17.3 1.7 4.7 5 7.7 9.9 7.9 6.5.4 13 .2 19.4 0 3.2-.1 5.3-2.3 7.5-4.5 1.3-1.3 3.1-2.8 4.8-3 13.9-1.5 27.6-4.2 41.3-8.4z"/><path class="st0" d="M163.9 15c-32.7-1.4-62.7 20.5-75 53-1.5 3.9-1.8 7.7-1.3 11.8 1.6 13.4 3.2 26.8 4.7 40.2.5 4.5-.4 5.5-5 6.1-3.3.4-6.6.8-9.9 1.1-4.8.4-6.8-.6-9-5.3-3.1-6.5-4.8-13.5-5.6-20.6-.9-7.7 0-15.3 1.7-22.8.8-3.4 2.2-6 5.9-6.5 3-.4 3.5-2.8 4.2-5 3.4-10.2 7.8-19.8 14.2-28.5C106.8 13.7 131.2.6 162.2 0c25.3-.5 46.9 8.3 65.2 25.5 10.9 10.2 18.3 22.8 23.6 36.6.7 1.9 1.4 3.7 2 5.6.7 2.2 1.7 3.8 4.3 4.3 3.2.5 4.6 2.9 5.3 5.9 3.7 14.7 2.6 29.1-3.3 43-2.4 5.6-4.5 6.7-10.4 6.2-3.1-.3-6.3-.6-9.4-1-4.2-.6-5.1-1.7-4.7-6 .7-7 1.5-13.9 2.3-20.8.8-6.8 1.9-13.5 2.4-20.3.2-3.1.2-6.5-.9-9.3-9.9-26.7-27.8-45.1-55.9-52.2-6.1-1.6-12.6-1.7-18.8-2.5z"/></svg>