<svg id="Слой_1" xmlns="http://www.w3.org/2000/svg" viewBox="0 0 276.3 227"><style>.st0{fill:#54bad3}</style><path class="st0" d="M195.4 227v-23.8c0-7.1-1.8-8.8-8.9-8.8h-49c-7.9 0-9.1 1.3-9.1 9.4V227h-79v-48.3c7.7 1.1 15.2 3.1 22.7 3.2 28.7.5 57.3.4 86 .5 2.2 0 4.4.1 6.5-.1 10-1.1 16.1-8.2 15.9-18.3v-2.9c13.4-1.7 18.8-8.1 18.3-21.4 14.2-4.3 19.2-9.6 18.1-19.4-1-8.8-7.3-14.1-17.7-14.9-.2-.3-.5-.5-.5-.8-.2-15.3-5.9-20.7-21.4-20.9-20.5-.2-41-.7-61.4-1.2-4.2-.1-8.4-.9-12.7-2.3 2.5-1.2 5-2.3 7.4-3.7 8.7-4.9 12.7-12.4 12-22.4-.7-9.1-9.9-15.2-18-11-11.3 5.7-23.3 8.5-35.6 11-6.6 1.4-12.9 3.9-19.6 6.1V.1h79v23.3c0 8 1.3 9.3 9.3 9.3h48.5c7.6 0 9.2-1.7 9.2-9.5V0h80.9v227h-80.9z"/><path class="st0" d="M110.3 52.9c1.5 6.8.3 9.7-5.8 12.6-8.1 3.9-16.3 7.4-24.6 11-3.3 1.4-6.1 3.1-5.6 7.2.5 4.3 3.8 5.2 7.5 5.9 27.5 5.2 55.2 6.2 83.1 5.8 5.7-.1 11.3 0 17 0 3.1 0 5.2 1.3 5.3 4.6.1 3.4-2 4.7-5.1 4.8h-55.5c-1.5 0-3 0-4.5.1-3.8.2-6.7 2-6.7 6 0 4.1 2.9 6 7.1 6h74c2 0 4.3-.3 5.9.6 1.6.9 3.2 3.1 3.3 4.7 0 1.3-2 3.2-3.5 4-1.3.7-3.3.3-4.9.3h-72c-1.3 0-2.7-.1-4 .1-3.7.5-6 2.7-5.8 6.3.2 3.3 2.3 5.5 5.9 5.6 2.8.1 5.7.1 8.5.1h51c3.5 0 6.6.6 6.6 4.9 0 4.3-3.3 4.9-6.7 4.8h-55.5c-6.8 0-9.7 1.7-9.9 5.7-.2 4.1 3.2 6.3 10 6.3h37c3.5 0 6.6.7 6.6 4.9 0 4-3.1 4.8-6.3 4.8-31-.1-62 0-93-.6-15.3-.3-28.2-8.4-41.2-15.4-1.1-.6-1.8-2.7-1.8-4.1-.1-16.8-.2-33.7 0-50.5 0-1.9 1.2-4.2 2.6-5.5C36.2 87.4 43 80.8 50.5 75c4.5-3.5 9.8-6.6 15.3-8.1 14.9-4.4 30.8-5.5 44.5-14zM15.7 179.1H0V81h15.7v98.1zM139.1 22.9V0h47.5v22.9h-47.5zm0 204.1v-22.9h47.5V227h-47.5z"/></svg>