<svg id="Слой_1" xmlns="http://www.w3.org/2000/svg" viewBox="0 0 311 345.3"><style>.st0{fill:#dea647}.st1{fill:#54bad3}</style><path class="st0" d="M186.6 163.3c-21.2-6.6-42.4-5.7-63.3-.1-11.9-13.2-10.1-36.9 3.6-50.6 15-15 38.7-15.6 54.7-1.4 16.8 14.9 15.2 39.2 5 52.1zM151.3 32.7c-.2 18.1-14.4 32.3-32.4 32.2-17.9 0-32.3-14.5-32.3-32.4 0-18.2 14.6-32.7 32.7-32.5 18 .2 32.2 14.7 32 32.7zm61.5-11c18.3.2 32.5 14.8 32.3 32.9-.3 17.9-14.8 32-32.9 31.8-17.9-.2-32.3-14.8-32-32.7.2-17.9 14.7-32.2 32.6-32zm-63 180.2h18.7c-9.5 10.8-18.5 20.9-28.3 32h34.4c.2.4.3.8.5 1.2-8.8 10.2-31.3 42-40.1 52.3-.3-.1 18.3-37.2 21.2-45.6h-27.7c7.5-14.1 14.4-27 21.3-39.9z"/><path class="st1" d="M304 216.3v29h-7v-14h-9.4c.1-14.3-4.1-28.8-12.8-42.1-12-18.3-29-30.5-48.7-39.2-7.9-3.5-16.3-6.1-23.9-8.9-2.6 8.4-4.9 15.8-7.3 23.4 3 1 6.4 2.1 9.9 3.3 3.4 1.2 7.2 2.6 10.2 3.8v7.7c-40-18.9-81-19.3-121 .4v-7.8c7-2.5 14-4.9 20.6-7.3-2.3-7-4.5-13.9-7-21.6-9.3 4-18.5 8-28.2 12.1-15.7-9.7-32.6-17.4-51.1-22.4 3.5 8.9 6.9 17 9.9 25.3 3 8.4 5.7 17.2 8 24.3-5.3 9.6-9.9 17.9-14.8 26.9H0v42h32.6c7.5 21 21.4 36.4 39.4 48.6v45.4h51v-25c21 4.9 43 4.6 65 1.5v23.6h50v-40.6c5-3.7 10.6-6.9 15.2-10.6 4.8-3.8 9.4-8 13.6-12.5 11.8-12.7 18.6-27.7 20.3-43.3h2.8v14h21v-36H304zm-175.3 82.4c-.3-.2-.6-.4-.9-.5 6-16.4 12-32.9 18.2-49.9h-29.4c9.9-18 19.3-36 28.9-53h38.6c-9.6 10-18.5 20-28.2 31h33.4c.2 1 .4.8.6 1.1-20.3 23.7-40.8 47.6-61.2 71.3z"/></svg>