<svg id="Слой_1" xmlns="http://www.w3.org/2000/svg" viewBox="0 0 278.9 309.6"><style>.st0{fill:#54bad3}.st1{fill:#dea647}</style><path class="st0" d="M192.9 41c3.1-5.5 6.1-10.7 9.2-16.2 11.4 6.4 22.6 12.6 34.1 19-3.2 5.9-6.3 11.6-9.4 17.3 31.7 26.8 49.6 60.4 51.8 101.7 1.8 33.3-7.3 63.6-27.3 90.4-42.1 56.4-117.3 71.9-177 40.1-60.9-32.4-89.1-103.6-66.6-168.4C20.8 87.1 45.8 59.6 82.2 43c36.3-16.5 73.4-16.3 110.7-2zM18.5 169.8c0 66.8 54.1 121.4 120.2 121.5 67.5.1 122-54 122-121.3 0-67-54.3-121.2-121.5-121.2-66.3 0-120.7 54.5-120.7 121zM161.8 21.4h-47V0h47v21.4z"/><path class="st1" d="M247.5 167.3v5.3h-89.8c-3.2 9.3-8.5 15.3-18.5 15.1-9.5-.2-14.7-6-17.6-14.9H98.3c-.2-1.9-.3-3.3-.4-5.4h23.5c3.1-9.2 8.4-15.1 18.1-15.1 9.8 0 15 6 18 14.9 30 .1 59.7.1 90 .1zM92.1 238.4c2.2 1.3 3.9 2.3 5.9 3.6-5.2 8.9-10.2 17.4-15.4 26.3-2.1-1.2-3.9-2.2-6-3.4 5.1-8.9 10.2-17.4 15.5-26.5zm143-125.3c1.2 2 2.2 3.6 3.6 5.9-8.9 5.1-17.5 10.1-26.5 15.3-1.2-2-2.2-3.6-3.6-5.9 8.8-5.1 17.5-10.1 26.5-15.3zm-39.9 154.4c-2.1 1.2-3.7 2.2-5.9 3.5-5.2-8.8-10.2-17.4-15.5-26.4 2-1.2 3.7-2.2 5.9-3.5 5.3 8.9 10.3 17.5 15.5 26.4zM102.6 95.6c-2 1.2-3.6 2.2-5.9 3.6-5.2-8.8-10.2-17.5-15.4-26.4 2-1.2 3.6-2.3 5.8-3.6 5.2 8.9 10.2 17.5 15.5 26.4zm91.3-23.7c2.1 1.2 3.8 2.2 6 3.5-5.2 8.9-10.3 17.5-15.5 26.4-2.1-1.2-3.8-2.2-6-3.4 5.2-9 10.3-17.6 15.5-26.5zM70.4 123.8c-1.4 2.2-2.4 3.9-3.6 5.9-8.8-5.1-17.4-10-26.4-15.2 1.1-2 2.1-3.8 3.3-6.1 9 5.2 17.6 10.2 26.7 15.4zM64.2 206c1.3 2.1 2.3 3.8 3.5 5.9-8.9 5.1-17.6 10.1-26.6 15.2-1.2-2.1-2.2-3.8-3.4-5.9 8.8-5 17.3-9.9 26.5-15.2zm79.9-118.7h-6.2V56.9h6.2v30.4zm-118.2 83v-6.1h30.4v6.1H25.9zm183.6 40.2c8.9 5.2 17.5 10.1 26.5 15.3-1.2 2.1-2.2 3.9-3.4 6-8.9-5.2-17.5-10.1-26.5-15.3 1.2-2.2 2.2-4 3.4-6zm-71 42.4v30.3h-6.3v-30.3h6.3z"/><circle class="st0" cx="139.2" cy="170" r="18.6"/></svg>