<svg id="Слой_1" xmlns="http://www.w3.org/2000/svg" viewBox="0 0 298.4 254.3"><style>.st0{fill:none;stroke:#54bad3;stroke-width:14;stroke-miterlimit:10}.st1{fill:#dea647}.st2{fill:#54bad3;stroke:#fff;stroke-width:8;stroke-miterlimit:10}.st3{fill:#fff}.st4{fill:#54bad3}</style><path class="st0" d="M7.3 7H291c.1 1.6.4 3 .4 4.4 0 49.5-.2 99 .1 148.5.1 20.1-13.5 32.6-25.4 36.1-5.3 1.5-10.7 2-16.8 1.5 12-17.7 16.1-36.7 11.4-57.3-3.7-16-12.1-29.1-25.1-39.1-26.8-20.7-62.3-19.9-88.5 1.7-21.3 17.6-37 55.8-12 94.7-1.3.1-2.3.2-3.4.2-29.2 0-58.3.1-87.5 0-16.8 0-30.6-9.7-35.3-25-1.2-3.9-1.8-8.2-1.8-12.3C7 110.6 7 60.7 7 10.9c0-1.1.2-2.3.3-3.9z"/><path class="st1" d="M228.1 196.3c5.6 14.7 11.2 29.6 17.1 45.1-7.3-1.2-13.9-2.4-20.8-3.5-4.2 5.3-8.4 10.5-13.2 16.4-5.9-15.3-11.4-29.9-17-44.5h-1.3c-6.2 14.4-11.1 29.4-17.3 44.4-4.5-5.7-8.7-10.9-13.1-16.3-6.8 1.1-13.6 2.3-20.9 3.5 5.7-15 11.1-29.5 16.5-43.7-26.9-25.6-21.7-59.8-3-78.4 19.8-19.7 52.3-20.3 73-1.4 19.9 18.2 25.4 53 0 78.4z"/><path class="st2" d="M234.1 157.4c.2-22.9-18.1-41.8-40.8-42.2-23.3-.4-42.3 17.9-42.7 41.2-.4 23.2 18.1 42.3 41.3 42.7 23 .4 42-18.3 42.2-41.7z"/><path class="st3" d="M188.5 168.5v5.1c0 3.9 1.7 5.3 4.5 5.3 2.7 0 4.5-1.4 4.5-5.3v-12c0-3.9-1.7-5.4-4.5-5.4-2.7 0-4.5 1.5-4.5 5.4v1.6h-8.1l1.6-31.7h22.6v7.8h-14.9l-.7 13c1.6-2.6 4.1-4 7.5-4 6.3 0 9.5 4.5 9.5 12.5V173c0 8.7-4.4 13.7-12.8 13.7s-12.8-5-12.8-13.7v-4.5h8.1z"/><path class="st1" d="M32.5 38.7v-4.9H254v4.9H32.5zm0 12v-4.9H254v4.9H32.5zm0 12v-4.9H254v4.9H32.5zm0 11v-4.9h74.7v4.9H32.5zm0 11v-4.9h74.7v4.9H32.5zm0 11v-4.9h74.7v4.9H32.5zm0 11v-4.9h74.7v4.9H32.5zm0 11v-4.9h74.7v4.9H32.5z"/><path class="st4" d="M39.6 170c1.7-4.8 4.9-12.6 9.4-15.6 3-2 2.8 1.9 3.1 4.6.3 2.9.2 5.7-.1 8.6-.1 1.3 1.7 2 2.6 1.1 3.9-4.6 7.8-9.1 11.7-13.7-.8-.2-1.7-.4-2.5-.7 1.3 5.7 2.6 11.5 3.9 17.2.2 1.1 1.8 1.5 2.5.7 4.2-4.9 9-9.1 14.3-12.7-.6-.1-1.2-.2-1.8-.2 3.4 3.2 1.1 8.7 5.8 11.2 4.8 2.5 12 1.5 17 .6 1.9-.4 1.1-3.3-.8-2.9-5 .9-14.7 2.5-16.9-3.6-1-2.8-.6-5.2-3-7.3-.5-.4-1.3-.6-1.8-.2-5.6 3.7-10.5 8.1-14.9 13.2.8.2 1.7.4 2.5.7-1.3-5.7-2.6-11.5-3.9-17.2-.2-1.1-1.8-1.5-2.5-.7-3.9 4.6-7.8 9.1-11.7 13.7.9.4 1.7.7 2.6 1.1.5-5.4.1-10.5-1.3-15.8-.1-.5-.6-.9-1-1-1.2-.3-2.6-1-3.8-.5-1.8.7-3.7 3.8-4.9 5.3-3.2 4.1-5.6 8.7-7.3 13.6-.7 1.6 2.2 2.4 2.8.5z"/></svg>